<?xml version="1.0" standalone="no"?>
<!DOCTYPE svg PUBLIC "-//W3C//DTD SVG 1.0//EN" "http://www.w3.org/TR/2001/REC-SVG-20010904/DTD/svg10.dtd">
<svg xmlns="http://www.w3.org/2000/svg" xmlns:xlink="http://www.w3.org/1999/xlink" id="body_1" width="100" height="100">

<g transform="matrix(0.5 0 0 0.5 0 0)">
	<g transform="matrix(0.4008016 0 0 0.4008016 0 0)">
		<g transform="matrix(0.1 0 -0 -0.1 0 499)">
            <path d="M2385 4309C 2272 4297 2108 4229 2061 4174C 2044 4155 2023 4126 2014 4108C 2005 4091 1985 4060 1970 4038C 1922 3973 1915 3919 1917 3666C 1918 3533 1924 3415 1931 3386C 1950 3303 1979 3245 2009 3227C 2032 3213 2038 3202 2042 3163C 2047 3111 2086 3025 2125 2978C 2146 2953 2150 2938 2150 2884C 2150 2785 2181 2743 2303 2675C 2365 2641 2375 2638 2413 2646L2413 2646L2455 2655L2452 2712C 2448 2767 2450 2770 2475 2780C 2490 2786 2508 2797 2517 2805C 2525 2813 2536 2818 2540 2815C 2552 2808 2665 2923 2709 2986C 2744 3035 2780 3117 2780 3146C 2780 3158 2771 3155 2735 3134C 2710 3120 2690 3112 2689 3117C 2681 3207 2658 3229 2585 3216C 2545 3208 2546 3190 2588 3172C 2610 3163 2593 3162 2505 3165C 2376 3169 2390 3168 2390 3181C 2390 3187 2398 3189 2409 3185C 2433 3178 2504 3206 2495 3220C 2492 3225 2496 3230 2504 3230C 2525 3230 2535 3251 2519 3261C 2511 3265 2487 3269 2465 3269C 2443 3268 2412 3273 2396 3279C 2367 3291 2308 3280 2286 3259C 2280 3254 2248 3250 2213 3250C 2164 3250 2146 3254 2131 3269C 2120 3280 2096 3292 2077 3295C 2044 3302 2042 3300 2032 3263L2032 3263L2022 3225L2021 3258C 2020 3279 2015 3290 2005 3290C 1997 3290 1988 3301 1984 3315C 1980 3330 1973 3337 1966 3333C 1960 3329 1961 3334 1969 3344C 1980 3357 1985 3358 1991 3348C 1998 3338 2000 3338 2000 3350C 2000 3358 2003 3406 2006 3455C 2009 3505 2013 3606 2014 3680C 2016 3791 2020 3825 2038 3869C 2050 3899 2065 3927 2072 3932C 2104 3953 2118 3958 2170 3965C 2200 3968 2249 3978 2278 3986C 2319 3998 2344 3999 2383 3991C 2412 3986 2486 3982 2548 3983C 2722 3986 2760 3959 2796 3810C 2804 3780 2810 3712 2810 3660C 2810 3537 2821 3370 2829 3370C 2840 3370 2878 3514 2884 3582C 2894 3691 2855 3972 2819 4046C 2796 4095 2656 4227 2595 4258C 2573 4269 2547 4287 2537 4298C 2517 4320 2495 4322 2385 4309zM1960 3390C 1966 3379 1968 3370 1966 3370C 1963 3370 1956 3379 1950 3390C 1944 3401 1942 3410 1944 3410C 1947 3410 1954 3401 1960 3390zM2313 3223C 2306 3221 2292 3221 2283 3223C 2273 3226 2279 3228 2295 3228C 2312 3228 2319 3226 2313 3223zM2630 3145C 2630 3127 2586 3036 2556 2991C 2536 2962 2520 2933 2520 2926C 2520 2920 2511 2909 2500 2902C 2484 2892 2473 2893 2445 2904C 2426 2912 2410 2924 2410 2930C 2410 2938 2400 2939 2381 2935C 2354 2929 2348 2933 2316 2977C 2264 3049 2216 3130 2223 3136C 2226 3139 2241 3122 2256 3098C 2271 3075 2287 3053 2292 3052C 2296 3050 2298 3045 2295 3040C 2292 3036 2298 3022 2308 3010C 2335 2977 2436 2971 2473 3000C 2518 3035 2508 3047 2433 3047C 2366 3046 2300 3068 2300 3090C 2300 3096 2303 3099 2308 3099C 2312 3098 2324 3098 2335 3099C 2353 3101 2353 3102 2330 3115C 2307 3128 2310 3129 2380 3131C 2421 3132 2474 3134 2497 3135C 2532 3137 2538 3134 2529 3123C 2513 3105 2528 3107 2575 3130C 2616 3150 2630 3154 2630 3145z" stroke="none" fill="#000000" fill-rule="nonzero" />
            <path d="M2120 3637C 2083 3618 2050 3563 2050 3518C 2050 3485 2054 3478 2078 3469C 2093 3463 2117 3452 2132 3444C 2164 3427 2212 3426 2228 3442C 2237 3451 2234 3457 2212 3467C 2186 3479 2186 3479 2210 3474C 2224 3471 2246 3473 2260 3478C 2278 3485 2292 3482 2313 3469C 2352 3446 2365 3453 2380 3504C 2390 3540 2389 3552 2377 3576C 2347 3635 2326 3645 2231 3647C 2179 3648 2134 3644 2120 3637zM2178 3475C 2175 3472 2165 3473 2156 3476C 2142 3481 2141 3485 2152 3491C 2165 3499 2188 3485 2178 3475z" stroke="none" fill="#000000" fill-rule="nonzero" />
            <path d="M2550 3642C 2512 3636 2502 3623 2490 3564C 2476 3497 2488 3475 2533 3484C 2558 3489 2560 3487 2555 3470C 2550 3455 2555 3449 2574 3444C 2587 3441 2607 3443 2617 3449C 2634 3459 2633 3459 2613 3460C 2601 3460 2589 3464 2586 3469C 2583 3474 2592 3478 2606 3478C 2620 3478 2642 3483 2655 3490C 2674 3500 2683 3500 2693 3491C 2701 3485 2715 3483 2725 3486C 2738 3491 2741 3501 2737 3526C 2734 3545 2735 3560 2741 3560C 2757 3560 2750 3600 2730 3620C 2705 3645 2689 3646 2696 3623C 2701 3606 2701 3606 2688 3622C 2674 3639 2602 3649 2550 3642z" stroke="none" fill="#000000" fill-rule="nonzero" />
            <path d="M2001 3314C 2001 3303 2004 3300 2007 3308C 2010 3315 2009 3324 2006 3327C 2003 3331 2000 3325 2001 3314z" stroke="none" fill="#000000" fill-rule="nonzero" />
            <path d="M2784 2821C 2788 2815 2786 2810 2779 2810C 2763 2810 2773 2657 2795 2577C 2805 2538 2809 2481 2808 2402C 2807 2309 2805 2297 2801 2345L2801 2345L2795 2405L2783 2350C 2776 2320 2768 2277 2765 2255C 2757 2200 2682 1866 2663 1804C 2655 1776 2629 1718 2606 1676L2606 1676L2563 1598L2556 1692C 2553 1743 2543 1850 2534 1930C 2494 2306 2492 2353 2512 2373C 2522 2383 2530 2399 2530 2409C 2530 2419 2536 2433 2544 2440C 2556 2449 2567 2444 2602 2412C 2641 2377 2709 2336 2716 2343C 2718 2344 2707 2354 2691 2364C 2661 2385 2642 2411 2589 2509C 2569 2547 2543 2580 2529 2586C 2514 2593 2475 2595 2421 2590C 2343 2584 2335 2581 2308 2552C 2275 2514 2273 2493 2300 2440C 2311 2418 2320 2394 2320 2386C 2320 2378 2327 2367 2336 2362C 2350 2354 2350 2340 2331 2209C 2305 2031 2270 1728 2270 1678C 2270 1658 2266 1639 2261 1636C 2256 1633 2235 1662 2215 1701C 2186 1757 2169 1817 2130 1993C 2103 2115 2078 2240 2074 2270C 2071 2300 2062 2335 2054 2346C 2037 2375 2033 2454 2047 2510C 2053 2535 2063 2578 2069 2606C 2083 2666 2080 2811 2065 2802C 2047 2792 1907 2676 1867 2638C 1845 2617 1821 2600 1813 2600C 1806 2600 1800 2593 1800 2584C 1800 2576 1796 2572 1790 2575C 1785 2578 1780 2576 1780 2571C 1780 2565 1773 2560 1765 2560C 1758 2560 1746 2552 1741 2543C 1735 2533 1730 2529 1730 2533C 1730 2537 1715 2530 1697 2516C 1651 2481 1638 2483 1682 2518C 1731 2557 1758 2585 1740 2578C 1732 2575 1685 2560 1635 2545C 1586 2530 1544 2513 1542 2509C 1540 2505 1533 2503 1525 2506C 1506 2514 1434 2480 1358 2429C 1285 2379 1278 2372 1246 2305C 1225 2259 1222 2237 1216 2059C 1207 1766 1161 1537 1054 1247C 1007 1120 1003 1104 995 959C 989 844 958 605 930 460C 919 402 906 333 900 305C 889 245 873 124 866 53L866 53L861 0L1104 0L1347 0L1359 87C 1370 166 1382 233 1436 505C 1444 549 1473 674 1500 783C 1527 892 1552 1003 1556 1030C 1560 1057 1568 1088 1576 1097C 1588 1114 1589 1113 1599 1088C 1614 1047 1688 664 1695 584C 1702 517 1700 510 1667 444C 1586 282 1554 136 1579 43L1579 43L1591 0L2485 0L3380 0L3380 54C 3380 113 3336 270 3319 270C 3303 270 3292 312 3269 451C 3247 591 3250 669 3285 788C 3292 814 3304 855 3310 879C 3317 904 3325 919 3330 914C 3344 899 3397 665 3430 473C 3480 179 3487 151 3531 106C 3554 84 3572 53 3576 34C 3582 3 3586 0 3616 0C 3640 0 3650 5 3650 15C 3650 23 3655 30 3660 30C 3666 30 3670 36 3670 43C 3670 50 3694 60 3730 67C 3773 75 3811 92 3862 127C 3953 187 3954 189 3905 416C 3885 509 3862 623 3855 670C 3839 768 3817 1022 3815 1125C 3814 1165 3805 1223 3793 1261C 3771 1329 3699 1638 3679 1750C 3673 1786 3665 1934 3661 2080L3661 2080L3655 2345L3623 2392C 3605 2418 3590 2442 3590 2446C 3590 2467 3459 2549 3394 2569C 3373 2576 3348 2584 3340 2587C 3332 2590 3316 2594 3305 2596C 3294 2597 3243 2610 3193 2623C 3142 2636 3100 2646 3100 2644C 3100 2643 3124 2624 3153 2603C 3197 2572 3206 2561 3200 2545C 3193 2526 3193 2526 3186 2548C 3182 2561 3162 2579 3142 2588C 3121 2597 3099 2611 3092 2618C 3085 2624 3072 2630 3064 2630C 3056 2630 3050 2637 3050 2645C 3050 2653 3046 2660 3040 2660C 3035 2660 3022 2667 3013 2676C 2956 2726 2936 2739 2928 2727C 2922 2718 2920 2719 2920 2730C 2920 2738 2899 2759 2873 2775C 2798 2822 2777 2833 2784 2821zM2797 2793C 2793 2790 2795 2781 2801 2773C 2808 2765 2809 2760 2802 2760C 2790 2760 2779 2786 2787 2794C 2791 2797 2796 2800 2798 2800C 2801 2800 2800 2797 2797 2793zM2060 2744C 2060 2730 2056 2721 2051 2724C 2046 2727 2044 2739 2047 2750C 2054 2778 2060 2775 2060 2744zM3140 2430C 3148 2425 3151 2420 3145 2420C 3140 2420 3128 2425 3120 2430C 3112 2435 3110 2440 3115 2440C 3121 2440 3132 2435 3140 2430zM1760 2375C 1746 2367 1731 2361 1725 2361C 1720 2361 1726 2367 1740 2375C 1754 2383 1770 2389 1775 2389C 1781 2389 1774 2383 1760 2375zM3237 2384C 3234 2381 3225 2380 3218 2383C 3210 2386 3213 2389 3224 2389C 3235 2390 3241 2387 3237 2384zM2037 2288C 2034 2281 2032 2286 2032 2300C 2032 2314 2034 2319 2037 2313C 2039 2306 2039 2294 2037 2288zM2117 1748C 2114 1740 2111 1743 2111 1754C 2110 1765 2113 1771 2116 1767C 2119 1764 2120 1755 2117 1748zM3297 1694C 3294 1691 3285 1690 3278 1693C 3270 1696 3273 1699 3284 1699C 3295 1700 3301 1697 3297 1694zM3259 1686C 3247 1676 3190 1662 3190 1670C 3190 1675 3198 1681 3208 1683C 3230 1689 3265 1691 3259 1686z" stroke="none" fill="#000000" fill-rule="nonzero" />
            <path d="M2105 2300C 2102 2295 2104 2290 2109 2290C 2115 2290 2120 2295 2120 2300C 2120 2306 2118 2310 2116 2310C 2113 2310 2108 2306 2105 2300z" stroke="none" fill="#000000" fill-rule="nonzero" />
		</g>
	</g>
</g>
</svg>